<?xml version="1.0" standalone="no"?>
<!DOCTYPE svg PUBLIC "-//W3C//DTD SVG 1.1//EN" "http://www.w3.org/Graphics/SVG/1.1/DTD/svg11.dtd">
<svg xmlns="http://www.w3.org/2000/svg">
<metadata>Copyright (C) 2019 by original authors @ fontello.com</metadata>
<defs>
<font id="fontello" horiz-adv-x="1000" >
<font-face font-family="fontello" font-weight="400" font-stretch="normal" units-per-em="1000" ascent="850" descent="-150" />
<missing-glyph horiz-adv-x="1000" />
<glyph glyph-name="facebook-logo" unicode="&#xe800;" d="M750 850l-130 0c-145 0-239-97-239-246v-114h-131c-11 0-20-9-20-20v-164c0-12 9-21 20-21h131v-415c0-11 9-20 20-20h170c11 0 20 9 20 20v415h153c11 0 20 9 20 21l0 164c0 5-2 11-6 14-3 4-9 6-14 6h-153v97c0 46 11 69 72 69l87 0c11 0 20 10 20 21v152c0 12-9 21-20 21z" horiz-adv-x="1000" />

<glyph glyph-name="vk" unicode="&#xe801;" d="M861 273c33-32 68-63 98-98 13-16 25-33 35-51 13-26 1-55-22-56l-146 0c-38-3-68 12-93 37-20 21-39 43-58 64-8 9-16 17-26 23-20 13-37 9-49-11-11-22-14-45-15-68-2-35-12-44-47-45-73-4-143 7-208 45-57 32-102 79-140 131-76 102-133 214-185 329-12 26-3 40 26 40 47 1 95 1 142 0 20 0 32-11 40-29 25-64 57-124 96-179 11-15 22-30 37-41 17-11 30-7 38 12 5 11 7 24 8 37 4 44 4 88-2 132-4 27-20 45-47 50-14 3-12 8-5 16 12 13 23 22 45 22h164c26-5 32-17 35-43l1-183c-1-10 5-40 23-46 14-5 24 6 33 16 39 41 67 91 92 142 11 23 21 46 30 69 7 18 18 26 38 26l158 0c5 0 10 0 14-1 27-5 34-16 26-42-13-41-38-75-63-109-27-37-55-72-81-109-24-34-22-51 8-80l0 0z m0 0" horiz-adv-x="1000" />

<glyph glyph-name="instagram" unicode="&#xe802;" d="M710 850h-419c-161 0-291-130-291-290v-419c0-161 130-291 291-291h419c160 0 290 130 290 291v419c0 160-130 290-290 290z m212-709c0-118-95-213-212-213h-419c-118 0-213 95-213 213v419c0 117 95 212 213 212h419c117 0 212-95 212-212v-419z m-422 479c-149 0-269-121-269-270s120-269 269-269 270 120 270 269-121 270-270 270z m0-461c-105 0-191 86-191 191s86 191 191 191 191-85 191-191-85-191-191-191z" horiz-adv-x="1000" />

<glyph glyph-name="plus" unicode="&#xe803;" d="M961 389h-422v422c0 22-17 39-39 39-22 0-39-17-39-39v-422h-422c-21 0-39-17-39-39s18-39 39-39h422v-422c0-22 17-39 39-39s39 17 39 39v422h422c22 0 39 17 39 39 0 22-17 39-39 39z" horiz-adv-x="1000" />

<glyph glyph-name="youtube" unicode="&#xe804;" d="M961 642c-36 42-103 60-230 60h-462c-130 0-198-19-234-64-35-45-35-111-35-201v-174c0-175 42-265 269-265h462c110 0 172 16 211 53 41 39 58 103 58 212v174c0 95-3 161-39 205z m-319-316l-210-110c-4-2-10-3-15-3-5 0-11 1-16 4-10 6-16 17-16 28v219c0 11 6 21 16 27 9 6 21 7 31 1l210-109c11-5 17-16 17-28 0-12-6-23-17-29z" horiz-adv-x="1000" />

<glyph glyph-name="right-arrow" unicode="&#xe805;" d="M673 691c-13 14-36 14-50 0-14-14-14-36 0-50l256-255h-844c-19 0-35-16-35-36 0-19 16-35 35-35h844l-256-256c-14-14-14-36 0-50 14-14 37-14 50 0l316 316c15 14 15 36 0 50l-316 316z" horiz-adv-x="1000" />

<glyph glyph-name="level-1" unicode="&#xe806;" d="M-4 845h3555v-1000h-3555v1000z" horiz-adv-x="3555" />

<glyph glyph-name="odnoklassnik" unicode="&#xe807;" d="M451 146c-78 8-148 27-207 74-8 5-16 11-22 18-26 25-29 54-8 83 17 26 47 32 78 18 6-3 12-6 17-10 112-77 265-79 377-4 11 9 23 16 37 19 26 7 51-3 66-26 16-27 16-53-4-74-31-31-69-54-110-70-39-16-82-23-124-28 6-7 9-11 13-15 58-57 115-115 173-173 19-20 23-45 13-68-12-25-38-41-64-39-17 1-29 9-41 20-43 44-87 87-130 132-12 13-18 10-29-1-44-45-88-90-133-134-20-19-44-23-67-12-25 12-41 38-40 63 1 17 10 30 21 42 57 57 114 114 171 171 4 4 7 8 13 14z m47 198c-138 0-252 115-251 254 1 140 114 252 254 252 140 0 252-115 252-256-1-139-115-251-255-250z m126 253c0 69-55 124-124 124-69 0-124-56-124-125 1-69 56-123 125-123 68 0 123 55 123 124z" horiz-adv-x="1000" />

<glyph glyph-name="error" unicode="&#xe808;" d="M500 850c-276 0-500-224-500-500s224-500 500-500 500 224 500 500-224 500-500 500z m0-962c-254 0-461 208-461 462s207 462 461 462 462-207 462-462-207-462-462-462z m187 649c-8 7-20 7-27 0l-160-160-159 160c-8 7-20 7-28 0s-7-20 0-27l160-160-160-159c-7-8-7-20 0-28 4-3 9-5 14-5s10 2 14 5l159 160 160-160c3-3 8-5 13-5s10 2 14 5c7 8 7 20 0 28l-160 159 160 160c7 7 7 19 0 27z" horiz-adv-x="1000" />

<glyph glyph-name="download" unicode="&#xe809;" d="M971 362c-16 0-28-13-28-29v-261c0-71-58-128-129-128h-628c-71 0-129 58-129 128v265c0 16-12 29-28 29s-29-13-29-29v-265c0-102 83-185 186-185h628c103 0 186 83 186 185v261c0 16-13 29-29 29z m-491-248c5-5 13-8 20-8s15 2 20 8l182 182c12 11 12 30 0 41-11 11-29 11-40 0l-133-133v581c0 16-13 28-29 28s-29-12-29-28v-581l-133 133c-11 11-29 11-40 0-12-11-12-30 0-41l182-182z" horiz-adv-x="1000" />

<glyph glyph-name="level-2" unicode="&#xe80a;" d="M0 852h2378v-1000h-2378v1000z" horiz-adv-x="2378" />

<glyph glyph-name="types-tourism-2" unicode="&#xe80b;" d="M391 844c-3 4-7 6-12 6-4 0-9-2-12-6-29-36-51-73-66-111-5-14-8-29-8-45 0-71 0-356 0-803 0-19 15-35 35-35h107c19 0 35 16 35 35v805c0 15-3 29-8 44-15 35-38 72-71 110z m-67-546c14 15 36 23 58 23 0 0 1 0 1 0 22 0 42-8 56-23v-52c-1 0-2 1-3 1h-110c-1 0-1-1-2-1 0 18 0 35 0 52z m0-82c1 0 1 0 2 0h110c1 0 2 0 3 0v-24c-1 0-2 1-3 1h-110c-1 0-1-1-2-1 0 8 0 16 0 24z m6 506c12 29 29 58 50 87 24-30 41-59 53-87 4-10 6-21 6-32v-352c-17 9-36 14-56 15-21 0-41-6-59-16 0 188 0 309 0 351 0 12 2 23 6 34z m105-841h-107c-2 0-4 2-4 4 0 101 0 193 0 277 1 0 1-1 2-1h110c1 0 2 1 3 1v-277c0-2-2-4-4-4z m206 963c-3 4-8 6-12 6-5 0-9-2-12-6-29-36-51-73-66-111-6-14-9-29-9-45 0-71 0-356 0-803 0-19 16-35 35-35h107c20 0 36 16 36 35v805c0 15-3 29-8 44-15 35-39 72-71 110z m-68-546c15 15 38 24 60 23 22 0 41-8 55-23v-52c-1 0-1 1-2 1h-110c-1 0-2-1-3-1 0 18 0 35 0 52z m0-82c1 0 2 0 3 0h110c1 0 1 0 2 0v-24c-1 0-1 1-2 1h-110c-1 0-2-1-3-1 0 8 0 16 0 24z m7 506c12 29 28 58 49 87 24-30 42-59 53-87 4-10 6-21 6-32v-352c-16 9-35 14-55 15-21 0-42-6-60-16 0 188 1 309 1 351 0 12 2 23 6 34z m104-841h-107c-2 0-4 2-4 4 0 101 0 193 0 277 1 0 2-1 3-1h110c1 0 1 1 2 1v-277c0-2-1-4-4-4z m-477 71c-22 14-44 21-66 24v514h21c9 0 16 7 16 15s-7 16-16 16h-21v76c0 8-7 15-16 15s-15-7-15-15v-76h-21c-9 0-16-7-16-16s7-15 16-15h21v-515c-22-2-44-10-66-23-6-3-9-11-7-17 2-7 8-12 15-12h58v-57c0-9 7-16 15-16s16 7 16 16v57h57c7 0 14 5 15 11 2 7 0 14-6 18z m749 0c-22 13-44 21-66 23v515h23c9 0 16 7 16 15s-7 16-16 16h-23v76c0 8-7 15-15 15-9 0-16-7-16-15v-76h-19c-9 0-16-7-16-16s7-15 16-15h19v-514c-22-3-44-11-66-24-6-4-8-11-6-18 2-6 8-11 15-11h57v-57c0-9 7-16 16-16 8 0 15 7 15 16v57h58c7 0 13 5 15 12 2 6-1 14-7 17z" horiz-adv-x="1000" />

<glyph glyph-name="types-tourism-3" unicode="&#xe80c;" d="M804 375l-178 338c-5 8-13 13-22 13 0 0 0 0 0 0-9 0-17-5-22-13l-164-306c-2-5-2-11 2-15l40-53c4-6 11-9 18-10 8 0 15 3 19 9l64 71 123-146c5-6 12-9 19-9 0 0 0 0 0 0 7 0 14 3 18 9l73 83c1 0 1 1 2 1l8 13c3 4 3 10 0 15z m-32-10l-69-79-123 146c-5 5-12 8-19 8 0 0 0 0 0 0-7 0-14-3-18-8l-63-71-31 41 155 290 170-323-2-4z m225-355l-115 217c-3 7-12 10-19 6-8-4-10-12-7-20l112-210h-390c0 2-170 324-170 324l25 47 27-35c4-6 11-9 18-10 8 0 15 3 19 9l64 71 123-146c5-6 12-9 19-9 0 0 0 0 0 0 7 0 14 3 18 9 0 0 0 0 0 0l68 79 27-52c4-7 13-10 20-6 7 4 10 13 6 20l-216 409c-5 8-13 13-22 13h0c-9 0-17-5-22-13l-153-286-11-20c0 0 0 0 0 0l-26-49-79 149c-3 6-9 11-15 12-2 1-5 1-7 1 0 0 0 0 0 0 0 0 0 0-1 0 0 0 0 0-1 0 0 0 0 0 0 0-1 0-1 0-1 0 0 0-1 0-1 0 0 0-1 0-1 0-7-2-13-6-16-12l-54-100-90-169c0 0 0 0 0 0l-123-229c-4-8-4-17 1-24 4-8 12-12 21-12h951c8 0 16 4 21 12 4 7 4 16 0 24z m-544 400l151 282 170-322-71-84-123 146c-5 5-12 8-19 8 0 0 0 0 0 0-7 0-14-3-18-8l-63-71-31 41 4 8z m-420-407l110 207 43-36c5-4 10-6 16-6 6 0 13 3 18 9l49 54 31-31c6-6 15-6 21 0 6 6 6 15 0 21l-35 35c-5 4-11 7-18 7-7 0-13-3-18-8l-49-56-44 37 134 250 173-327-42-38-38 38c-6 5-15 5-21-1-5-5-5-15 0-20l42-41c4-5 11-7 17-7 6 0 12 2 16 6l40 36 68-129h-513z" horiz-adv-x="1000" />

<glyph glyph-name="types-tourism-4" unicode="&#xe80d;" d="M684 236c4-3 8-4 12-4 4 0 9 2 12 5 214 239 280 498 283 509 7 27 17 76-1 94-18 18-67 8-94 1-3-1-298-77-546-318l-74 74 12 12c19 20 19 51 0 71l-71 71c-16 15-37 24-59 24-22 0-43-9-59-24-32-33-32-86 0-118l71-71c9-9 22-15 35-15h0c14 0 26 6 36 15l11 12 154-153c0 0 0 0 0 0 0 0 0 0 0 0l153-153c-78-72-184-123-224-83-31 31-7 113 55 192 6 7 4 17-3 23-7 6-17 5-23-3-76-96-97-191-53-236 16-15 38-22 63-22 58 0 137 38 208 105l44-44c-240-234-495-307-498-309-1 0-41-14-68-5l135 136c7 6 7 17 0 23-6 7-17 7-23 0l-135-135c-8 23 0 55 5 69 1 2 66 233 275 463 7 6 6 17-1 23-6 6-17 6-23-1-214-235-280-467-282-475-2-3-29-77 11-117 16-17 39-22 60-22 29 0 55 9 56 10 11 3 265 76 512 317l74-74-12-12c-20-20-20-51 0-71l71-71c15-15 36-24 59-24s43 9 58 24c16 16 25 37 25 59 0 23-9 43-25 59l-70 71c-19 19-52 19-71 0l-12-12-306 306c43 40 89 70 131 86 42 15 76 14 93-3 30-30 7-112-54-190-5-7-4-17 3-23 3-2 7-4 11-4 5 0 9 3 13 7 74 95 95 189 50 233-26 27-72 31-127 11-47-17-98-50-143-93l-44 44c137 133 288 214 394 260 13-4 50-18 87-55 38-39 51-78 54-89-42-96-113-230-226-356-6-7-5-18 1-24z m-420 397l-47-47c-3-4-7-5-12-5-4 0-8 1-11 5l-71 70c-20 20-20 51 0 71 9 9 22 15 35 15 14 0 26-6 36-15l70-71c7-6 7-17 0-23z m472-566l47 47c3 3 7 5 11 5 5 0 9-2 12-5l71-70c9-10 15-22 15-36 0-13-6-26-15-35-19-19-52-19-71 0l-70 71c-7 6-7 17 0 23z m142 661c-24 24-47 40-67 49 56 22 92 31 93 32 25 6 53 10 62 7 3-9-1-37-7-62 0-1-10-37-32-93-9 19-25 43-49 67z" horiz-adv-x="1000" />

<glyph glyph-name="level-3" unicode="&#xe80e;" d="M1 848h1585v-1000h-1585v1000z" horiz-adv-x="1585" />

<glyph glyph-name="level-4" unicode="&#xe80f;" d="M0 849h1430v-1000h-1430v1000z" horiz-adv-x="1431" />

<glyph glyph-name="types-tourism-7" unicode="&#xe810;" d="M982 679c-82 44-202 94-415 103v35c0 18-15 33-34 33h-66c-19 0-34-15-34-33v-35c-213-9-333-59-415-103-15-7-22-24-16-39 6-17 24-26 41-23 129 25 259 41 390 48v-57c-40-36-44-99-9-140-16-35-5-77 26-101v-224l-8-2c-15-4-25-17-25-33v-108c0-4-2-9-5-12l-12-12c-11-10-17-25-17-40v0c-12 2-31 6-62 13-11 3-20 5-29 7-45 11-69 17-151 59-42 21-76 24-102 8-24-17-38-44-39-73 0-65 47-100 133-100 67 1 133 11 197 32 18 5 36 9 54 14 2-26 24-46 49-46h117c18 0 33 15 33 33v27c0 9-3 17-9 23l-12 12c-3 3-3 7 0 10 16 15 16 41 0 57-1 1-2 3-2 5s1 3 2 4c16 16 16 42 0 57-3 3-3 7 0 10l12 12c6 6 9 15 9 24v9c0 9-3 18-9 24-7 6-15 10-24 10v200c32 24 42 66 26 101 35 41 31 104-9 140v56c19-2 38-3 57-5 14-1 28-2 41-3 12 0 24 3 35 9l26-13c4-2 10-2 14 0l25 12 25-18c4-3 9-4 14-3l27 6 28-14c2-1 3-2 5-2 0 0 66-11 93-16 2 0 5 0 7 0 15-1 29 9 34 23 6 15-1 32-16 39z m-661-765c-61-20-124-30-188-31-100 0-100 50-100 67 1 17 9 34 23 45 6 3 13 5 21 5 17-1 34-6 49-15 85-44 113-50 158-61 9-2 18-4 29-7l10-2c-1-1-1-1-2-1z m146 903h66v-34c-11 0-22 0-33 0-11 0-22 0-33 0z m71-762c2-1 2-3 2-5 0-2 0-4-2-5-7-7-12-18-12-28 0-11 5-21 12-29 2-1 2-3 2-5s0-3-2-5c-15-15-15-41 0-57l12-11v-27h-117c-9 0-16 8-16 17v36c0 6 2 12 7 17l11 12c10 9 15 22 15 35v108l100 25v-9l-12-12c-7-8-11-18-11-29 0-10 4-20 11-28z m-21 104l-34-8v201c11-3 23-3 34 0z m27 325c-6-6-8-15-3-22 15-21 11-49-8-66-19-17-47-17-66 0-19 17-22 45-8 66 5 7 4 16-3 22-14 12-23 30-23 49 0 37 30 67 67 67 37 0 67-30 67-67 0-19-9-37-23-49z m-11 144c-21 7-45 7-66 0v38c11 1 22 1 33 1 10 0 21-1 33-1z m430 22c-24 5-78 14-91 16l-31 16c-4 2-8 2-12 1l-26-6-26 20c-5 3-12 4-17 1l-27-12-26 12c-5 2-11 2-16 0-7-5-15-8-23-9-13 1-27 2-42 3-43 4-92 8-126 8-191 0-396-37-463-50-1 0-2 0-2 0 86 47 218 100 465 100 247 0 378-53 465-100 0 0-1 0-2 0z m0 0m-446-117c0-9-8-16-17-16-9 0-17 7-17 16 0 10 8 17 17 17 9 0 17-7 17-17z m0 0m0-100c0-9-8-16-17-16-9 0-17 7-17 16 0 10 8 17 17 17 9 0 17-7 17-17z m0 0m-34-500c0-9-7-16-16-16-9 0-17 7-17 16 0 9 8 17 17 17 9 0 16-8 16-17z m0 0" horiz-adv-x="1000" />

<glyph glyph-name="types-tourism-8" unicode="&#xe811;" d="M852 150h-366v33h316c9 0 16 6 17 15 6 71-2 143-24 211-32 108-113 261-309 383v8c0 28-23 50-50 50-28 0-50-22-50-50v-14c-98-308-376-571-378-574-5-4-7-12-4-18 2-6 8-11 15-11h367v-33h-317c-7 0-13-4-16-11l-45-129c-14-36-10-77 12-109 22-32 58-51 97-51h551c48 0 90 29 108 73l92 204c2 5 1 11-2 15-3 5-8 8-14 8z m-65 67h-301v536c300-197 305-471 301-536z m-728 0c67 69 233 254 327 474v-474z m360 583c0 9 7 17 17 17s16-8 16-17v-650h-33z m-33-683h441l-30-67h-739l23 67z m359-181c-12-32-43-53-77-53h-551c-28 0-54 14-70 37-15 23-18 53-7 78l6 19h736z m0 0m-409 47h-250c-10 0-17-7-17-16s7-17 17-17h250c9 0 16 7 16 17s-7 16-16 16z m0 0m83 0h-17c-9 0-16-7-16-16s7-17 16-17h17c9 0 17 7 17 17s-8 16-17 16z m0 0m282 330c1-7 8-13 16-13 1 0 2 0 3 0 9 2 15 11 13 20-34 169-165 318-170 324-4 5-10 7-16 6-6-1-11-5-13-11-2-6 0-12 4-17 1-1 130-148 163-309z m0 0m-365-30h-67c-9 0-17-7-17-16s8-17 17-17h67c9 0 16 8 16 17s-7 16-16 16z m0 0" horiz-adv-x="1000" />

<glyph glyph-name="types-tourism-9" unicode="&#xe812;" d="M999 714c-3 9-11 15-21 15h-173c-66 57-151 92-238 98-147 10-292-11-430-61l-122-45c-12-4-18-17-14-28 4-9 12-14 21-14 3 0 5 0 8 1l122 44c132 49 271 68 412 59 59-4 117-23 167-54-11-1-19-11-19-22 0-12 10-22 22-22h175l-35-24c-34-24-77-30-116-16-11 5-24-1-28-13-4-11 2-24 13-28 19-7 39-10 58-10 11 0 21 1 32 3l-27-546c0-1 0-2 0-2-36 5-72-10-92-41-6-10-4-23 6-30 4-3 8-4 13-4 7 0 14 4 18 10 9 14 25 22 42 22-12-21-32-37-55-45l-19-7c-3-1-6-2-9-2l-24 95c-3 11-15 18-26 16-12-3-19-15-16-27l17-69-18 10c-13 7-20 23-17 38 6 24 4 50-4 74l-49 137c6-1 12-2 18-2l99-7c0 0 1 0 1 0 12 0 21 9 22 21 1 12-8 22-20 23l-99 7c-64 4-95 51-102 91-7 39 6 94 64 120l88 40c11 5 16 18 11 29-5 11-18 16-29 11l-88-40c-29-12-52-32-68-56-39-11-197-59-304-155-9-8-10-22-2-31 4-5 10-7 16-7 5 0 11 2 15 5 80 72 194 116 254 135-3-19-4-39 0-59 2-13 6-26 12-39-8-24-34-97-73-175-61-122-125-199-186-224-12-4-17-17-12-28 3-9 11-14 20-14 3 0 5 0 8 1 138 56 238 299 274 396 1-1 1-2 2-2 8-8 16-15 26-20l61-172c5-16 6-33 3-50-8-34 7-68 37-85l34-19c14-8 31-13 47-13 11 0 21 2 31 6l20 6c34 12 62 36 79 67 11 19 17 41 18 62l28 564c7 4 14 8 21 13l92 64c8 6 11 16 8 25z m-238-328c4-5 10-7 16-7 5 0 10 1 15 5 9 8 9 22 1 31l-29 33c-8 9-22 10-31 2s-10-22-2-31l30-33z" horiz-adv-x="1000" />

<glyph glyph-name="types-tourism-1" unicode="&#xe813;" d="M714 244l10 30 32-12-11-29z m-160 58l128-46 11 29-119 43-17 226-31-2 18-236a16 16 0 0 1 10-14z m-429-292l-29-59a16 16 0 0 1-2-7v-47a16 16 0 0 1 15-16h63a16 16 0 0 1 11 5l27 26h49l27-26a16 16 0 0 1 11-5h62a16 16 0 0 1 11 5l27 26h97l26-26a16 16 0 0 1 11-5h78a16 16 0 0 1 11 5l27 26h65l27-26a16 16 0 0 1 11-5h78a16 16 0 0 1 11 5l63 62a16 16 0 0 1 4 11v84a140 140 0 0 1-91 131l-300 109-31 396a16 16 0 0 1-15 15c-221 0-361-77-367-80a16 16 0 0 1-8-18c1-2 47-171 47-308 0-105-9-203-13-250-2-14-3-23-3-28z m351 370l-58-15 8-30 53 13 5-75-58-36-23 29a16 16 0 0 1-16 5l-216-56c0 23 1 48 1 73 0 21-1 44-3 66l303 81z m48-215l83 51 64-23-54-33 16-26 75 46 20-8a98 98 0 0 1-25-65 17 17 0 0 0-16-18c-78-3-152-5-218-5-19 0-37 1-54 1l52 85a16 16 0 0 1-2 18l-20 25 64 39 61-22-63-39z m-367-145c1 5 1 10 2 16 2 31 7 83 10 146l216 57 14-18-48-30 17-26 51 31 15-19-101-168c-92 3-150 8-176 11z m665-108h-65l-27 27a16 16 0 0 1-11 5h-78a16 16 0 0 1-11-5l-27-27h-65l-27 27a16 16 0 0 1-11 5h-109a16 16 0 0 1-11-5l-27-27h-50l-26 27a16 16 0 0 1-11 5h-63a16 16 0 0 1-11-5l-27-27h-40v28l25 49 1 0 3 0 5-1 4 0 7-1 5 0 9-1 4-1c5 0 10 0 15-1l6 0 12-1 7-1 13-1 8 0c5 0 10-1 15-1l8 0q11-1 22-1l3-1c9 0 18 0 27-1l9 0c6 0 13 0 20-1l12 0q10 0 20 0l13 0c7-1 15-1 23-1l11 0c12 0 24 0 37 0q30 0 60 0h4c21 1 42 1 63 2h2c69 1 131 4 181 7l11 0 5 0c36 2 64 4 80 5v-23z m31 196a109 109 0 0 0 22-65v-22c-15-1-40-3-74-5l-2 0-5 0c-18-1-38-2-60-3-47-2-93-4-138-5q-32-1-64-1h-1q-32-1-62-1c-37 0-70 1-100 1l28 47c22-1 46-1 72-1 67 0 141 2 220 5a49 49 0 0 1 45 50 67 67 0 0 0 27 52l43-15a108 108 0 0 0 49-37z m-396 521l-54-14 7-30 49 12 4-49-45-11 8-30 40 10 3-51-303-81c-3 28-7 55-11 79l209 59a16 16 0 0 1 11 16l-10 117a882 882 0 0 0 89 6z m-123 23l9-103-194-54c-8 44-17 79-21 97a764 764 0 0 0 206 60z m-146-568h31v-31h-31z m62-15h31v-31h-31z" horiz-adv-x="1000" />

<glyph glyph-name="types-tourism-5" unicode="&#xe814;" d="M766 444a202 202 0 0 1-67-12l-66 152h94a23 23 0 0 0 0-46h-39v-32h39a55 55 0 0 1 0 110h-118a16 16 0 0 1-14-22l31-72h-261l-19 57 53 18a34 34 0 0 1-11 66h-116a38 38 0 0 1-27-65l9-9a69 69 0 0 1 62-19l17-52a15 15 0 0 1-3-4l-46-87a203 203 0 1 1 111-254 62 62 0 0 1 55-41l12-36a16 16 0 0 1 14-10l55-2 1 32-44 1-7 21a62 62 0 0 1 20 95l157 217 13-30a203 203 0 1 1 95 24z m-450 158a39 39 0 0 0-40 9l-8 9a7 7 0 0 0 4 11h116a3 3 0 0 0 1-5z m-113-533a172 172 0 1 0 66 330l-80-151a16 16 0 0 1 11-23l168-31a172 172 0 0 0-165-125z m171 155l-147 28 70 132a172 172 0 0 0 78-143c0-6 0-11-1-17z m32 10c0 2 0 5 0 7a203 203 0 0 1-94 171l34 65 74-230a62 62 0 0 1-14-13z m65-66l-11 32-30-10 8-24a31 31 0 1 0 33 2z m5 84a62 62 0 0 1-23 4c-1 0-2 0-3 0l-75 235h265l3-8z m290-183a172 172 0 0 0-83 322l68-157 29 13-68 157a172 172 0 1 0 54-335z" horiz-adv-x="1000" />

<glyph glyph-name="types-tourism-6" unicode="&#xe815;" d="M922 428h-117l-142 199a47 47 0 0 1-38 20h-422a78 78 0 0 1-78-78v-31h-62a31 31 0 0 1-32-32v-156a31 31 0 0 1 32-31h62v-125a47 47 0 0 1 47-47h48a109 109 0 0 1 216 0h222a109 109 0 0 1 216 0h48a47 47 0 0 1 47 47v187a47 47 0 0 1-47 47z m-359 125h114l90-125h-204z m-32-125h-312v125h312z m-468-78v47h15v31h-15v31h15v32h-15v15h62v-47h-16v-31h16v-31h-16v-31h16v-16z m93-156v15h47v32h-47v328a47 47 0 0 0 47 47h422a16 16 0 0 0 12-7l18-25h-452a16 16 0 0 1-15-15v-156a16 16 0 0 1 15-16h328v-219h-95a109 109 0 0 1-216 0h-48a16 16 0 0 0-16 16z m172-110a78 78 0 1 0 78 79 78 78 0 0 0-78-79z m438 0a78 78 0 1 0 78 79 78 78 0 0 0-78-79z m156 94h-48a109 109 0 0 1-216 0h-95v219h359a16 16 0 0 0 16-16v-15h-63a31 31 0 0 1-31-32v-31a31 31 0 0 1 31-31h63v-31h-47v-32h47v-15a16 16 0 0 0-16-16z m16 156v-31h-63v31z m-344 32h62v-32h-62z m-281-188h31v-31h-31z m437 0h31v-31h-31z" horiz-adv-x="1000" />

<glyph glyph-name="types-hiking-3" unicode="&#xe816;" d="M308 487c-6 5-15 4-20-2-6-7-14-12-22-12-9 0-16 5-22 12-5 6-15 7-21 2-6-5-7-14-2-21 11-14 28-22 45-22 17 0 33 8 45 22 5 7 4 16-3 21z m-109 87c-8 0-15-7-15-15v-16c0-9 7-15 15-15 8 0 14 6 14 15v16c0 8-6 15-14 15z m134 0c-8 0-15-7-15-15v-16c0-9 7-15 15-15 8 0 14 6 14 15v16c0 8-6 15-14 15z m461-171c-6 5-16 4-21-2-6-7-14-11-22-11-8 0-16 4-22 11-5 6-14 7-21 2-6-5-7-14-2-20 12-14 28-22 45-22 17 0 34 8 45 22 5 6 4 15-2 20z m-110 87c-8 0-14-6-14-14v-17c0-8 6-15 14-15 8 0 15 7 15 15v17c0 8-7 14-15 14z m134 0c-8 0-15-6-15-14v-17c0-8 7-15 15-15 8 0 15 7 15 15v17c0 8-7 14-15 14z m141-289l-114 45c-1 1-2 1-2 1 79 18 117 49 118 50 4 3 6 8 5 13 0 1-16 118-16 233 0 109-89 198-199 198-109 0-199-89-199-198 0-31-1-67-3-102l-32-16-94 47c0 0-1 0-1 0 5 13 7 27 9 41 19 6 33 25 33 46 0 15-6 28-16 37v97c0 27-14 52-36 67-8 28-33 48-63 48h-133c-73 0-132-59-132-132v-80c-11-9-17-22-17-37 0-21 14-40 34-46 4-49 29-92 66-120v-40l-121-37c-27-8-46-33-46-62v-163c0-8 7-15 15-15h2v-170c0-8 6-14 14-14 9 0 15 6 15 14v170h54v-170c0-8 7-14 15-14 8 0 15 6 15 14v253c0 13-4 25-11 36l-25 38c-5 6-14 8-20 4-7-5-9-14-5-21l25-37c4-6 6-13 6-20v-54h-69-2v149c0 16 11 30 26 34l50 15c17-73 84-127 161-127 27 0 54 7 78 20 9-12 23-20 39-20h2v-2c0-49 27-92 67-114v-24c0-1-1-2-1-2l-55-18c-27-9-44-34-44-62v-48c0-8 6-14 14-14 8 0 15 6 15 14v48c0 15 10 29 24 34l16 5c21-32 57-51 96-51 38 0 74 19 95 51l16-5c15-5 25-19 25-34v-48c0-8 6-14 14-14 9 0 15 6 15 14v48c0 28-18 53-44 62l-55 18c-1 0-1 1-1 2v24c30 17 52 45 62 79 27-29 66-46 107-46 65 0 122 42 141 103l56-23c14-5 23-18 23-33v-68h-2-53v19c0 8-6 14-14 14-8 0-15-6-15-14v-185c0-8 7-14 15-14 8 0 14 6 14 14v137h38v-137c0-8 7-14 15-14 8 0 14 6 14 14v137h2c4 0 8 1 11 4 3 3 4 6 4 10v83c0 27-16 51-41 61z m-377 342c0 93 76 169 169 169 94 0 170-76 170-169 0-99 11-198 15-228-13-9-46-27-103-40v23c7 5 15 10 22 16 29 23 49 55 57 91 3 12 4 25 4 37 0 83-60 95-117 106-37 8-75 15-106 39-4 4-10 5-15 2-5-2-8-7-8-13 0 0-1-39-56-53-8-2-13-10-11-18 2-7 10-12 18-10 46 11 65 37 73 57 31-19 67-26 99-32 62-13 94-22 94-78 0-10-1-20-3-30-7-30-24-57-47-76-25-19-54-30-86-30-29 0-56 9-79 26-9 23-22 44-40 61v66c0 5-3 10-7 12-4 3-10 3-14 1l-32-16c2 31 3 60 3 87z m21-108v-53l-53 27 53 26z m-172 0l53-26-53-27v53z m-79-160v-14c-11-9-17-22-17-36-21-13-45-19-69-19-64 0-119 45-133 106l36 11c9-46 49-80 97-80 38 0 71 22 87 53-1-7-1-14-1-21z m-155 67v34c21-10 44-15 69-15 24 0 48 5 69 15v-34c0-38-31-69-69-69-38 0-69 31-69 68 0 1 0 1 0 1z m69 48c-75 0-136 61-136 136 0 8-7 14-15 14-10 0-19 9-19 19 0 11 9 19 19 19h34c6 0 11 4 13 10l14 40c34 1 138 6 197 35 7 4 10 13 6 20-3 7-12 10-19 7-63-32-193-32-195-32-6 0-12-4-14-10l-13-41h-23c-1 0-1 0-2 0v69c0 57 46 103 103 103h133c18 0 33-13 35-30 1-4 4-8 8-11 16-9 26-26 26-45v-86c0 0-1 0-2 0h-16c-8 0-15-6-15-14 0-8 7-15 15-15h16c11 0 19-8 19-19s-8-19-19-19c-8 0-14-6-14-14 0-75-61-136-136-136z m98-48v51c15 11 27 24 38 39v-39c-17-16-29-35-38-55 0 1 0 2 0 4z m219-339c-16-20-40-32-66-32-26 0-50 12-67 32l10 3c13 4 21 16 21 30v11c12-3 23-4 36-4 12 0 24 1 35 4v-11c0-14 9-26 22-30l9-3z m51 203c-8 0-15-7-15-15v-15c0 0 0 0 0 0v-2c0-56-46-102-102-102-57 0-103 46-103 102v17c0 8-6 15-14 15h-17c-10 0-19 8-19 19 0 6 4 12 10 16 1 0 2 1 3 3 36 1 154 7 231 51 7 5 9 13 5 20-4 8-13 10-20 6-67-39-174-46-212-48v2c0 27 8 53 23 76 1-2 3-4 5-5 2-1 5-2 7-2 3 0 5 0 7 1l94 47 94-47c2-1 4-1 6-1 3 0 6 1 8 2 2 1 3 3 5 5 15-23 23-49 23-76v-22c0-5 3-10 7-12 6-4 10-10 10-16 0-11-9-19-19-19h-17z m117-84c-40 0-78 21-100 54 26 1 48 22 48 49 0 14-6 27-17 36v14c0 6 0 11-1 17 22-10 46-15 70-15 18 0 36 3 52 8v-21c0-20 12-37 31-45l31-12c-15-50-61-85-114-85z m-192 30c-6 5-15 4-20-2-6-7-14-11-22-11-9 0-16 4-22 11-5 6-15 7-21 2-6-5-7-14-2-20 11-14 28-23 45-23 17 0 33 9 45 23 5 6 4 15-3 20z" horiz-adv-x="1000" />

<glyph glyph-name="level-5" unicode="&#xe817;" d="M1 851h1024v-1002h-1024v1002z" horiz-adv-x="1026" />

<glyph glyph-name="level-6" unicode="&#xe818;" d="M-1 850h795v-1001h-795v1001z" horiz-adv-x="794" />

<glyph glyph-name="types-hiking-6" unicode="&#xe819;" d="M876 13h11c8 0 15 7 15 15v65c0 9-7 15-15 15h-48l11 92c1 8-5 15-13 16-8 1-16-5-17-13l-11-95h-57l13 127c0 5-1 9-4 12-3 3-7 5-11 5h-43c-10 32-25 63-44 90l134-14c10-1 19-5 25-13s9-18 8-28l-4-39c-1-9 4-16 13-17 0 0 1 0 1 0 8 0 14 6 15 13l5 40c2 18-3 35-15 49-11 15-27 23-45 25l-164 16c-10 11-20 21-32 30l-38 188c36 26 61 68 61 116 0 78-64 142-142 142-79 0-142-64-142-142 0-42 18-79 47-105l-9-38c-4-13-7-27-9-41l-41 106c-8 21-29 35-51 35-18 0-34-7-44-21-11-14-15-31-10-48l39-158c-32-17-61-39-86-66-52-57-82-132-82-210 0-172 140-312 312-312 118 0 221 66 274 163h54c-17-17-27-41-27-67 0-53 43-96 96-96 53 0 97 43 97 96 0 26-11 50-27 67z m-142 209l-12-114h-6c3 18 4 35 4 54 0 20-2 40-6 60h20z m-165 207c-21 13-44 23-68 30v51c0 9-7 15-15 15-8 0-15-6-15-15v-246h-74v193c0 0 0 0 0 0v0c0 34 4 68 12 101l7 26c20-11 44-18 69-18 19 0 37 4 54 11l30-148z m-98-195v-28c0-21-17-37-37-37-21 0-37 16-37 37v28h0 74z m-98 474c0 62 50 112 112 112 62 0 112-50 112-112s-50-112-112-112c-62 0-112 50-112 112z m-119-104c-2 7 0 15 5 22 5 6 13 10 21 10 10 0 20-7 24-17l57-150c-23-3-46-10-68-18l-39 153z m155-724c-155 0-282 126-282 282 0 70 27 138 74 190 25 27 55 49 87 64 1 0 1 1 1 1 25 11 51 19 78 23v-38c-60-10-116-44-153-93-5-7-4-16 3-21 3-2 6-3 9-3 4 0 9 2 12 6 31 42 78 71 129 81v-166c0-37 30-67 67-67s67 30 67 67v150c74-36 123-111 123-194 0-119-97-215-215-215-118 0-215 96-215 215 0 31 7 61 20 89 3 8 0 17-7 20-8 4-17 0-20-7-15-32-22-67-22-102 0-135 109-245 244-245s244 110 244 245c0 99-61 189-152 226v40c112-39 190-146 190-266 0-156-127-282-282-282z m288 163c5 11 9 23 12 36h163v-36h-66c0 0 0 0 0 0 0 0 0 0 0 0h-109z m109-163c-37 0-66 30-66 66 0 37 29 67 66 67h0c37 0 67-30 67-67 0-36-30-66-67-66z m0 110c-24 0-44-19-44-44s20-44 44-44c25 0 44 20 44 44s-19 44-44 44z m0-58c-8 0-14 6-14 14s6 15 14 15c8 0 15-7 15-15s-7-14-15-14z" horiz-adv-x="1000" />

<glyph glyph-name="types-hiking-1" unicode="&#xe81a;" d="M983-75v650h-200v-650h-50v517h-200v-517h-50v383h-200v-383h-50v233h-200v-233h-16c-10 0-17-7-17-17s7-16 17-16h16 200 50 200 50 200 50 200c10 0 17 6 17 16s-7 17-17 17z m-916 0v200h133v-200h-133z m250 0v350h133v-350h-133z m250 0v483h133v-483h-133z m250 0v617h133v-617h-133z" horiz-adv-x="1000" />

<glyph glyph-name="types-hiking-2" unicode="&#xe81b;" d="M828 415c-7 3-16 0-19-8-8-20-27-33-49-33-14 0-28 6-38 16-5 5-9 11-12 17-3 8-11 11-19 8-7-3-11-11-8-19 4-10 10-19 18-27 16-16 37-24 59-24 34 0 64 20 77 51 3 8-1 16-9 19z m-152 101c-8 0-15-7-15-15v-8c0-8 7-15 15-15s14 7 14 15v8c0 8-6 15-14 15z m168 0c-8 0-15-7-15-15v-8c0-8 7-15 15-15s15 7 15 15v8c0 8-7 15-15 15z m-518-101c-7 3-16 0-19-8-8-20-28-33-49-33-15 0-28 6-38 16-5 5-9 11-12 17-3 8-12 11-19 8-8-3-11-11-8-19 4-10 10-19 18-27 16-16 36-24 59-24 33 0 63 20 76 51 3 8 0 16-8 19z m-153 101c-8 0-14-7-14-15v-8c0-8 6-15 14-15s15 7 15 15v8c0 8-7 15-15 15z m169 0c-8 0-15-7-15-15v-8c0-8 7-15 15-15s14 7 14 15v8c0 8-6 15-14 15z m643 81c8 0 15 7 15 15v41c0 57-47 104-105 104h-19l-3 6c-12 27-39 45-69 45h-97c-103 0-187-84-187-187v-300c0-43 35-78 78-78h84v-21h-316-31v28c18 8 34 19 49 33 30 29 50 68 55 109 30 0 54 24 54 54v19c0 13-5 25-13 34l34 134c2 7-3 15-11 17-8 2-16-2-18-10l-31-124c-4 2-9 2-14 3v49c0 5-2 9-6 12-3 3-8 3-13 2-80-25-150-23-203 4-40 20-56 48-56 48-3 6-10 9-17 7-6-1-11-7-11-14 0-36-7-44-46-47-7 0-13-7-13-14v-47c-6-1-11-2-16-3-6 24-10 42-11 51-2 18-1 73 0 92 0 1 0 1 0 1 0 24 20 43 43 43h23c4 0 7 2 10 5l52 52c11 11 27 15 41 12l185-44c9-2 19-4 29-4 29 0 58 10 80 28 0 1 1 1 2 0 1 0 1-1 0-1l-11-44c-2-8 3-16 11-18 8-2 16 3 18 11l11 44c3 13-2 26-13 33-12 7-26 7-36-2-18-14-39-21-62-21-7 0-15 1-23 2l-184 44c-24 6-51-1-68-19l-48-48h-17c-40 0-72-33-72-73-1-5-3-73 0-97 1-12 6-34 15-65-7-9-12-21-12-33v-19c0-30 24-54 54-54 8-63 49-116 104-142v-28h-31c-9 0-18-1-26-3-7 13-21 21-36 21h-36c-28 0-51-23-51-51v-80c0-20 12-38 30-46v-156c0-9 6-15 15-15h426c8 0 14 6 14 15v196c0 36-16 68-41 90h238v-7c0-43 64-79 71-83 2-2 4-2 7-2 2 0 5 0 7 2 7 4 71 40 71 83v7h30c50 0 90-41 90-90v-182h-41v98c0 9-6 15-14 15s-15-6-15-15v-98h-256v169c0 8-7 14-15 14h-88c-8 0-14-6-14-14 0-8 6-15 14-15h74v-168c0-9 6-15 14-15h356c8 0 15 6 15 15v196c0 66-54 119-120 119h-30v21h83c44 0 79 35 79 78v222c0 8-7 14-15 14s-14-6-14-14v-33c-8 5-18 8-28 9v70c0 34-10 66-30 94-2 3-6 5-10 6-4 0-8-1-11-3-64-53-146-82-229-82-23 0-46 2-68 6-5 1-9 0-12-3s-6-6-6-10c0-3 0-5 0-8v-70c-10-1-20-4-28-9v111c0 87 71 158 158 158h97c19 0 35-11 42-28l7-14c2-6 7-9 13-9h29c42 0 76-34 76-75v-41c0-8 6-15 14-15z m-881-189c0 7-7 13-14 13h-14c-13 0-24 11-24 25v19c0 13 11 24 24 24h13c8 0 15 7 15 15v49c31 4 48 16 55 39 11-10 25-21 44-31 68-36 148-28 208-12v-45c0-8 7-15 15-15h13c13 0 24-11 24-24v-19c0-14-11-25-24-25h-14c-7 0-14-6-14-13-2-40-19-76-48-104-14-13-30-24-48-31 0 0 0 0 0 0-18-7-38-11-57-11-21 0-40 4-58 11 0 0 0 0-1 0-53 22-92 73-95 135z m202-169v-32-21c0-13-5-26-14-35-9-9-22-14-34-14-27 0-49 22-49 49v21 32c16-4 32-6 49-6 16 0 32 2 48 6z m-277-130v80c0 12 10 22 22 22h36c7 0 12-6 12-12v-99c0-7-5-13-12-13h-36c-12 0-22 10-22 22z m427-6v-182h-41v98c0 9-7 15-15 15s-14-6-14-15v-98h-256v98c0 9-7 15-15 15s-15-6-15-15v-98h-41v137h28c23 0 41 19 41 42v90c7 2 14 3 21 3h31v-7c0-43 35-78 78-78 20 0 40 8 54 23 15 14 23 34 23 55v7h31c49 0 90-41 90-90z m352 83c0-17-26-40-48-53-22 13-49 36-49 53v53c16-4 32-6 49-6 16 0 33 2 48 6v-53z m163 215v-80h0c0-27-22-49-50-49h-48c5 4 9 7 13 11 31 29 50 68 55 109 11 0 21 3 30 9z m-392 88h13c8 0 14 7 14 15v75c19-3 38-4 57-4 85 0 167 27 234 78 11-20 16-41 16-64v-85c0-8 7-15 15-15h13c14 0 25-11 25-24v-19c0-14-11-25-25-25h-13c-8 0-14-6-15-13-2-40-19-76-47-104-14-13-31-24-48-31-1 0-1 0-1 0-18-7-37-11-57-11-20 0-40 4-57 11-1 0-1 0-1 0-54 22-92 73-95 135-1 7-7 13-15 13h-13c-14 0-25 11-25 25v19h0c0 13 11 24 25 24z m0-97c6-49 31-91 68-120h-49c-27 0-49 22-49 49v80c8-6 19-9 30-9z" horiz-adv-x="1000" />

<glyph glyph-name="types-hiking-5" unicode="&#xe81c;" d="M753 183l-159 53v33c34 22 60 56 71 97 17-20 38-57 38-110v-30l25 18c5 3 116 83 116 169 0 37-10 55-20 75-13 24-27 51-27 128v118c0 55-45 100-101 100-30 0-58-13-77-36l-25-30c-29 12-61 20-94 20s-65-8-93-20l-26 30c-19 23-47 36-77 36-56 0-101-45-101-100v-118c0-77-14-104-27-128-10-20-20-38-20-75 0-86 111-166 116-169l25-18v30c0 53 21 90 38 110 11-41 37-75 71-97v-33l-159-53c-45-15-75-56-75-104v-213h656v213c0 48-30 89-75 104z m-67-181c11-12 17-27 17-43s-6-31-17-42l-14-14v-6h-344v6l-14 14c-11 11-17 27-17 42s6 31 17 43l14 13v162l31 11v-119c0-43 35-78 79-78h125c43 0 78 35 78 78v119l31-11v-162z m-14 413v88c18-6 31-23 31-44s-13-37-31-44z m-29 363c13 16 32 25 53 25 39 0 70-31 70-69v-118c0-85 16-117 30-142 10-19 17-32 17-61 0-49-50-100-81-126-6 48-28 81-45 101 28 12 47 39 47 71v94c0 85-45 159-112 200z m60-225v-31c-13 9-29 16-47 16-55 0-106 24-140 67l-16 20-16-20c-34-43-85-67-140-67-18 0-34-7-47-16v31c0 112 91 203 203 203s203-91 203-203z m-406-94c0 21 13 38 31 44v-88c-18 7-31 24-31 44z m-29-172c-30 26-80 77-80 126 0 29 6 42 16 61 14 25 30 57 30 142v118c0 38 32 69 70 69 21 0 40-9 53-25l21-25c-67-41-112-115-112-200v-94c0-31 19-59 47-71-17-20-38-53-45-101z m91 126v94c55 4 105 28 141 69 36-41 87-65 141-69v-94c0-78-63-141-141-141s-141 63-141 141z m141-172c22 0 43 4 63 12v-21l-63-63-62 63v21c19-8 40-12 62-12z m-29-110c5 0 9-1 12-4l17-18 18 18c2 3 7 4 11 4h2c9 0 16-7 16-15 0-5-2-10-6-13l-41-30-41 30c-3 3-6 8-6 13 0 8 7 15 16 15z m-53 76l45-45c-23-3-41-22-41-46 0-15 7-29 19-38l59-44 59 44c12 9 19 23 19 38 0 24-18 43-41 46l45 45 27-9v-129c0-26-21-47-46-47h-125c-26 0-47 21-47 47v129z m-215-128c0 34 22 64 54 74l40 14v-139l-5-4c-17-17-26-41-26-65 0-23 9-45 25-62h-88z m594-182h-88c16 17 25 39 25 62 0 24-9 48-26 65l-5 4v139l41-14c31-10 53-40 53-74z m-234 484h-32c0-17-14-31-31-31s-31 14-31 31h-31c0-34 28-62 62-62s63 28 63 62z m-235 250c0-26 21-47 47-47 22 0 40 15 45 35 6-2 11-3 18-3 16 0 31 8 39 22 7-4 15-7 23-7s16 3 23 7c8-14 23-22 40-22 6 0 12 1 17 3 5-20 23-35 45-35 26 0 47 21 47 47s-21 47-47 47c-6 0-12-1-17-3-6 20-24 34-45 34-9 0-17-2-23-6-9 13-23 22-40 22s-31-9-39-22c-7 4-15 6-23 6-22 0-40-14-46-34-5 2-11 3-17 3-26 0-47-21-47-47z m297 16c9 0 16-7 16-16s-7-15-16-15-16 7-16 15 7 16 16 16z m-62 31c8 0 15-7 15-15s-7-16-15-16-16 7-16 16 7 15 16 15z m-63 16c9 0 16-7 16-16s-7-15-16-15-16 7-16 15 7 16 16 16z m-62-16c8 0 15-7 15-15s-7-16-15-16-16 7-16 16 7 15 16 15z m-47-47c0-8-7-15-16-15s-16 7-16 15 7 16 16 16 16-7 16-16z" horiz-adv-x="1000" />

<glyph glyph-name="types-hiking-4" unicode="&#xe81d;" d="M991 632l-485 217c-4 1-8 1-12 0l-197-88c-7-4-10-12-7-20 3-7 12-11 19-7l191 85 175-78v-109c-93 34-171 36-175 37 0 0 0 0 0 0-4-1-94-3-195-45-40-16-77-37-110-61-2-2-4-4-5-7l-139 62 195 88c8 3 11 12 8 19-4 8-12 11-20 8l-225-101c-6-3-9-8-9-14 0-6 3-11 9-13l180-81v-71c0-8 7-15 15-15 8 0 15 7 15 15v80c0 0 0 0 0 0v11c29 20 62 38 97 53 93 38 177 42 184 42 7 0 85-4 175-39v-147c-22-6-38-26-38-50 0-21 14-40 32-48l-10-27c-67-12-121-28-159-48-88 46-235 59-281 62v42c0 8-7 15-15 15-8 0-15-7-15-15v-56c0-8 7-14 15-14 1-1 194-9 289-64 2-1 5-2 7-2 3 0 5 1 7 2 32 19 80 34 140 45l-9-23c-2-4-1-9 2-13 3-4 7-7 12-7h75c5 0 9 3 12 7 3 4 3 9 2 13l-14 36c41 4 69 6 70 6 7 0 14 6 14 14v56c0 8-7 15-15 15-8 0-15-7-15-15v-42c-14-1-37-2-65-6l-7 19c19 8 33 27 33 48 0 24-16 44-38 50v135c28-13 54-28 77-44v-11 0-80c0-8 7-15 15-15s15 7 15 15v71l180 81c6 2 9 7 9 13 0 6-3 11-9 14z m-318-350l16 42 16-42z m39 121c0-12-10-22-23-22-12 0-22 10-22 22 0 13 10 23 22 23 13 0 23-10 23-23z m98 153c-1 3-3 5-5 7-30 22-64 41-101 57v108l245-110z m0 0" horiz-adv-x="1000" />

<glyph glyph-name="search" unicode="&#xe81e;" d="M976-118l-280 292c71 72 116 170 116 280 0 218-178 396-397 396s-396-178-396-396 177-397 396-397c96 0 184 34 253 91l281-292c4-4 9-6 14-6 4 0 9 2 13 5 7 7 7 19 0 27z m-561 213c-198 0-359 161-359 359s161 358 359 358 359-161 359-358-161-359-359-359z" horiz-adv-x="1000" />

<glyph glyph-name="next" unicode="&#xe81f;" d="M756 370l-472 472c-11 11-29 11-40 0s-11-29 0-40l452-452-452-452c-11-11-11-29 0-40 6-5 13-8 20-8 7 0 15 3 20 8l472 472c11 11 11 29 0 40z" horiz-adv-x="1000" />

<glyph glyph-name="refresh" unicode="&#xe820;" d="M114 315c-6 53-1 104 13 151 46 157 190 273 361 275v102c0 6 7 9 12 6l211-156c4-2 4-7 0-10l-211-155c-5-3-12 0-12 5v103c-112-2-208-72-250-170-15-37-23-78-21-121 3-59 25-113 60-157 19-23 15-58-10-75-23-17-55-13-73 10-43 54-72 120-80 192z m609 197c36-44 58-98 61-157 2-43-6-84-22-121-41-98-137-168-250-170v103c0 6-7 9-12 5l-211-155c-3-3-3-8 0-10l211-156c5-3 12 0 12 6v102c171 2 316 118 362 275 13 47 18 98 12 151-8 72-37 138-80 192-18 23-50 27-73 10-24-17-28-51-10-75z" horiz-adv-x="1000" />

<glyph glyph-name="star" unicode="&#xe821;" d="M500 826l153-316 347-48-253-243 62-345-309 166-309-166 62 345-253 243 347 48z" horiz-adv-x="1000" />

<glyph glyph-name="binoculars" unicode="&#xe822;" d="M973 229l-110 448c-17 69-76 120-145 123-89 4-162-67-162-155v-79h-112v79c0 88-73 159-162 155-69-3-128-54-145-123l-109-448c-18-32-28-68-28-107 0-123 100-222 222-222 119 0 216 93 222 211 0 1 0 2 0 3v8 167h112v-167-8c0-1 0-2 0-3 6-118 103-211 222-211 122 0 222 99 222 222 0 39-10 75-27 107z m-751-292c-102 0-185 83-185 185 0 34 9 65 25 92 4 6 7 12 11 17 1 2 2 3 3 4 10 12 20 23 32 32 1 1 2 2 3 3 5 4 11 7 16 11 1 0 2 1 3 1 13 8 27 14 42 18 1 0 3 1 4 1 6 2 12 3 18 4 2 0 4 0 6 1 7 1 15 1 22 1 102 0 185-83 185-185 0-2 0-3 0-4l0-3c0-1 0-1 0-1-4-98-85-177-185-177z m556 0c-99 0-180 78-185 175 0 1 0 1 0 2 0 1 0 3 0 4 0 2 0 3 0 4 0 102 83 185 185 185 7 0 15-1 22-1 2-1 4-1 6-1 6-1 12-2 18-4 1 0 3-1 4-1 15-4 29-10 42-18 1 0 2-1 3-1 5-4 11-7 16-11 1-1 2-2 3-3 12-9 23-20 32-32 1-1 2-2 3-4 4-5 8-11 11-17 16-27 25-58 25-92 0-102-83-185-185-185z" horiz-adv-x="1000" />

<glyph glyph-name="clock" unicode="&#xe823;" d="M500 850c-276 0-500-224-500-500s224-500 500-500 500 224 500 500-224 500-500 500z m0-967c-257 0-467 210-467 467s210 467 467 467 467-210 467-467-210-467-467-467z m17 533v169c0 10-8 17-17 17s-17-7-17-17v-169c-23-6-41-24-47-47h-119c-9 0-17-8-17-17s8-17 17-17h119c7-28 33-50 64-50 37 0 67 30 67 67 0 31-22 57-50 64z m-17-97c-18 0-33 15-33 33s15 33 33 33 33-15 33-33-15-33-33-33z m0 366c9 0 17 8 17 17v17c0 9-8 16-17 16s-17-7-17-16v-17c0-9 8-17 17-17z m0-666c-9 0-17-8-17-17v-17c0-9 8-16 17-16s17 7 17 16v17c0 9-8 17-17 17z m367 350h-17c-9 0-17-8-17-17s8-17 17-17h17c9 0 16 8 16 17s-7 17-16 17z m-717 0h-17c-9 0-16-8-16-17s7-17 16-17h17c9 0 17 8 17 17s-8 17-17 17z m598 254l-12-12c-7-6-7-17 0-23 3-3 7-5 12-5s8 2 11 5l12 12c7 6 7 17 0 23s-17 7-23 0z m-507-507l-12-11c-7-7-7-17 0-24 3-3 8-5 12-5s8 2 12 5l11 12c7 6 7 17 0 23s-17 7-23 0z m518 0c-6 7-17 7-23 0s-7-17 0-23l12-12c3-3 7-5 11-5s9 2 12 5c7 7 7 17 0 24l-12 11z m-506 507c-7 7-17 7-24 0s-7-17 0-23l12-12c3-3 7-5 12-5s8 2 11 5c7 6 7 17 0 23l-11 12z" horiz-adv-x="1000" />

<glyph glyph-name="attachment" unicode="&#xe824;" d="M971 478c-7 8-19 8-27 0l-529-529c-39-39-91-60-146-60-56 0-108 21-147 60s-60 91-60 147c0 55 21 107 60 146l529 529c56 56 144 53 205-8 61-61 64-149 8-205l-497-497c-28-27-73-27-101 0-27 28-27 73 0 101l337 337c7 7 7 19 0 27s-20 8-28 0l-336-336c-43-43-43-113 0-156 43-43 113-43 156 0l496 497c72 71 69 183-8 259-76 77-188 80-259 8l-529-528c-47-47-72-108-72-174 0-66 25-128 72-174 46-47 108-72 174-72 66 0 127 25 174 72l528 529c8 7 8 19 0 27z" horiz-adv-x="1000" />

<glyph glyph-name="smile" unicode="&#xe825;" d="M854 704c-195 195-513 195-708 0-195-195-195-513 0-708 195-195 513-195 708 0 195 195 195 513 0 708z m-55-653c-165-165-433-165-598 0-165 165-165 433 0 598 165 165 433 165 598 0 165-165 165-433 0-598z m-486 434c0 33 27 59 59 59 32 0 58-26 58-59 0-32-26-58-58-58-32 0-59 26-59 58z m266 0c0 33 26 59 58 59 32 0 59-26 59-59 0-32-27-58-59-58s-58 26-58 58z m138-239c-36-84-121-138-216-138-98 0-183 54-218 139-6 14 1 31 15 37 4 1 8 2 11 2 11 0 22-7 26-18 27-63 91-103 166-103 72 0 137 40 164 103 6 15 23 21 37 15s21-23 15-37z" horiz-adv-x="1000" />

<glyph glyph-name="hand" unicode="&#xe826;" d="M966 297c23 26 34 57 34 93 0 33-12 61-36 84-23 24-51 36-84 36h-173c2 6 3 11 5 15 2 4 4 9 7 14 3 5 5 9 6 11 8 14 13 26 17 35 4 9 8 22 12 38 4 15 6 31 6 47 0 10 0 18 0 24 0 7-1 16-3 29-2 12-5 22-8 31-3 8-8 18-15 28-7 10-15 19-25 25-10 7-22 12-37 16-16 5-33 7-52 7-11 0-20-4-28-12-8-8-15-19-21-31-6-13-10-23-13-33-2-9-4-21-7-38-4-17-7-30-9-38-2-7-5-17-11-30-5-12-12-22-19-30-14-14-35-39-63-75-21-26-42-52-63-75-22-24-38-36-48-37-10-1-19-5-27-13-7-8-11-17-11-27v-401c0-11 4-20 12-28 8-8 17-12 28-12 15 0 48-10 99-28 32-10 57-19 75-24 18-6 44-12 76-18 33-7 63-10 90-10h11 47 23c55 1 96 17 123 49 24 28 34 66 30 113 17 15 28 35 34 59 7 25 7 49 0 73 19 25 28 54 27 85 0 14-3 30-9 48z m-746 133h-180c-11 0-20-4-28-12-8-8-12-17-12-28v-400c0-11 4-20 12-28 8-8 17-12 28-12h180c11 0 20 4 28 12 8 8 12 17 12 28v400c0 11-4 20-12 28-8 8-17 12-28 12z m-72-388c-8-8-17-12-28-12-11 0-21 4-28 12-8 7-12 17-12 28 0 11 4 20 12 28 7 8 17 12 28 12 11 0 20-4 28-12 8-8 12-17 12-28 0-11-4-21-12-28z" horiz-adv-x="1000" />

<glyph glyph-name="arrow" unicode="&#xe827;" d="M990 368l-239 138c-10 6-23 2-28-8-6-9-3-22 7-28l173-99h-882c-12 0-21-10-21-21 0-11 9-21 21-21h882l-173-99c-10-6-13-19-7-28 3-7 10-11 17-11 4 0 7 1 11 3l239 138c6 4 10 11 10 18 0 7-4 14-10 18z" horiz-adv-x="1000" />

<glyph glyph-name="route" unicode="&#xe828;" d="M592 450h33c9 0 17 7 17 17s-8 16-17 16h-33c-10 0-17-7-17-16s7-17 17-17z m-59-117c-7 0-14 2-21 4-8 3-18-1-21-9-3-9 1-19 10-22 10-4 21-6 32-6h6c9 0 17 8 17 17s-8 16-17 16h-6z m-39 106c3 0 6 1 9 2 7 5 15 8 24 9 9 1 16 9 15 18s-10 16-19 15c-14-2-26-6-38-13-8-5-10-16-5-23 3-5 8-8 14-8z m106-256c-1 0-3 0-4 0-10 0-17-8-16-17 0-9 7-16 16-16 1 0 1 0 1 0l33 0c9 0 16 8 16 17s-7 16-16 16h-30z m125 267c9 0 17 7 17 17s-8 16-17 16h-33c-10 0-17-7-17-16s7-17 17-17h33z m71-267c-9 0-16-7-16-16s7-17 16-17h34c9 0 16 8 16 17s-7 16-16 16h-34z m60 134c0 9-8 16-17 16h-33c-9 0-17-7-17-16s8-17 17-17h33c9 0 17 8 17 17z m-160-167h34c9 0 16 8 16 17s-7 16-16 16h-34c-9 0-16-7-16-16s7-17 16-17z m60 167c0 9-8 16-17 16h-33c-9 0-17-7-17-16s8-17 17-17h33c9 0 17 8 17 17z m-150 16c-9 0-17-7-17-16s8-17 17-17h33c9 0 17 8 17 17s-8 16-17 16h-33z m-205-450h-33c-9 0-17-7-17-16s8-17 17-17h33c9 0 17 7 17 17s-8 16-17 16z m-100 0h-33c-9 0-17-7-17-16s8-17 17-17h33c9 0 17 7 17 17s-8 16-17 16z m576 58c-9 2-18-3-20-12-2-9-6-17-11-23-6-8-5-18 3-24 3-2 6-3 10-3 5 0 10 2 13 6 8 11 14 23 17 36 2 9-3 18-12 20z m-18 30c4 0 7 1 10 4 7 6 9 16 3 23-8 11-19 20-31 26-9 4-19 1-23-8-4-8 0-18 8-22 8-4 14-10 20-16 3-5 8-7 13-7z m-75 46c0 9-7 16-16 16h-34c-9 0-16-7-16-16s7-17 16-17h34c9 0 16 7 16 17z m16-134h-32c-9 0-17-7-17-16s8-17 17-17l33 0 0 17v-17c9 0 16 7 16 17 0 9-8 16-17 16z m190 373c-1 9-10 15-19 14-9-1-15-10-13-19 0-3 0-6 0-9 0-6-1-11-2-17-3-9 2-18 11-20 2-1 3-1 5-1 7 0 14 5 16 12 2 8 4 17 4 26 0 4-1 9-2 14z m-523 96c9 3 14 13 11 22-2 5-3 11-3 18 0 2 0 5 0 7 2 9-5 18-14 19-9 1-18-6-19-15 0-3 0-7 0-11 0-10 1-20 4-29 2-7 9-11 16-11 2 0 3 0 5 0z m479-31c-12 7-25 11-39 12-9 1-17-6-18-15 0-9 6-17 16-18 8-1 17-3 24-8 3-1 6-2 8-2 6 0 12 3 15 8 5 8 2 18-6 23z m-24-133c-7-3-14-5-22-5h-4c-9 0-16-7-16-16s7-17 16-17h4c12 0 24 2 35 7 9 4 13 13 9 22-3 8-13 12-22 9z m-379-85c1 8 5 16 10 23 5 8 4 18-4 24-7 5-17 3-23-4-8-11-14-24-16-37-2-9 4-18 13-20 1 0 2 0 3 0 8 0 15 6 17 14z m26-96c6 0 12 3 15 10 4 8 0 18-8 22-8 3-15 9-21 15-6 7-16 8-23 2-7-6-8-16-2-23 8-11 20-19 32-25 2-1 4-1 7-1z m-68-124h-33c-9 0-17-7-17-16s8-17 17-17h33c9 0 17 7 17 17s-8 16-17 16z m100 0h-33c-9 0-17-7-17-16s8-17 17-17h33c9 0 17 7 17 17s-8 16-17 16z m83 134c0 9-7 16-16 16h-34c-9 0-16-7-16-16s7-17 16-17h34c9 0 16 7 16 17z m17-134h-33c-9 0-17-7-17-16s8-17 17-17h33c9 0 17 7 17 17s-8 16-17 16z m-351 484c-37 43-88 66-142 66s-104-23-142-66c-77-87-77-228 0-315l142-161 142 161c77 87 77 228 0 315z m-142-234c-55 0-100 45-100 100s45 100 100 100 100-44 100-100-45-100-100-100z m605 309l107 121c58 65 58 172 0 237-28 32-67 50-108 50-40 0-79-18-107-50-58-65-58-172 0-237l108-121z m4 341c50 0 91-41 91-91s-41-92-91-92-92 41-92 92 41 91 92 91z" horiz-adv-x="1000" />

<glyph glyph-name="rout" unicode="&#xe829;" d="M375 725a375 375 0 1 0-375-375 375 375 0 0 0 375 375z m625 125q563-249 1125-501l-1125-499q138 249 275 499-137 251-275 501z" horiz-adv-x="2125" />

<glyph glyph-name="checked" unicode="&#xe82a;" d="M280 389l135-269s221 547 568 730c-8-130-42-244 17-383-152-34-466-426-568-617a1182 1182 0 0 1-432 366z" horiz-adv-x="1000" />

<glyph glyph-name="settings" unicode="&#xe82b;" d="M863 462l-26 60c0 0 59 133 54 138l-78 76c-5 5-138-55-138-55l-61 24c0 0-54 135-61 135h-110c-8 0-58-135-58-135l-61-25c0 0-135 58-140 53l-78-76c-5-6 56-135 56-135l-25-60c0 0-137-53-137-60v-108c0-7 138-56 138-56l25-60c0 0-59-133-54-138l78-76c5-5 138 56 138 56l61-25c0 0 54-135 62-135h109c8 0 58 135 58 135l61 25c0 0 135-58 140-53l78 76c6 6-56 136-56 136l25 59c0 0 137 53 137 61v107c0 7-137 56-137 56z m-203-112c0-86-72-157-160-157-88 0-160 71-160 157s72 157 160 157c88 0 160-70 160-157z" horiz-adv-x="1000" />

<glyph glyph-name="door" unicode="&#xe82c;" d="M404 850v-73h-232v-853l232 0v-74l423 76 1 848-424 76z m70-466c15 0 26-15 26-34 0-18-11-33-26-33s-25 15-25 33c0 19 11 34 25 34z m-233-391v715h163v-715l-163 0z" horiz-adv-x="1000" />

<glyph glyph-name="email" unicode="&#xe82d;" d="M999 635c0 1 1 2 1 3l-305-294 305-285c0 2-1 4-1 6v570z m-351-336l-124-120c-7-6-15-9-23-9-8 0-16 3-22 8l-124 116-307-296c7-2 15-4 24-4h859c12 0 24 3 34 9l-317 296z m-147-52l465 449c-10 6-22 10-35 10h-859c-17 0-33-6-45-16l474-443z m-501 377v-559c0-6 2-12 3-18l303 292-306 285z" horiz-adv-x="1000" />

<glyph glyph-name="right-arr" unicode="&#xe82e;" d="M32-150v1000l936-500-936-500z" horiz-adv-x="1000" />
</font>
</defs>
</svg>
